<svg height="512pt" viewBox="0 0 512 512.00622" width="512pt" xmlns="http://www.w3.org/2000/svg"><path d="m428.207031 170.667969-7.253906 2.816406c6.351563-2.445313 13.410156-2.261719 19.625.511719 3.484375 1.535156 6.554687 3.875 8.960937 6.824218 1.929688 2.195313 3.457032 4.707032 4.523438 7.425782 2.429688 6.335937 2.238281 13.378906-.53125 19.574218-2.769531 6.195313-7.890625 11.035157-14.230469 13.449219l-62.464843 23.894531c6.351562-2.464843 13.433593-2.25 19.625.597657 3.496093 1.476562 6.574218 3.789062 8.960937 6.738281 2.3125 2.695312 4.054687 5.832031 5.121094 9.21875 3.445312 13.332031-3.792969 27.101562-16.726563 31.828125l-191.316406 73.128906c-3.859375 1.378907-7.792969 2.546875-11.777344 3.5h-.085937c-22.03125 5.957031-45.433594 4.269531-66.386719-4.777343-4.113281-1.945313-8.851562-2.070313-13.058594-.34375l-19.539062 7.425781-4.949219 1.875c-2.164063.738281-4.390625 1.253906-6.65625 1.539062-19.199219 3.414063-68.609375 7.167969-71.511719-.429687v-132.265625c-2.816406-7.335938 4.949219-19.710938 12.714844-25.597657 1.382812-1.082031 2.902344-1.972656 4.523438-2.648437l2.902343-1.109375c12.796875-4.835938 23.082031-14.660156 28.5-27.21875 9.132813-21.164062 25.941407-54.785156 47.789063-75.007812 33.789062-31.234376 77.652344-68.269532 87.464844-90.285157.234374-.566406.519531-1.109375.855468-1.621093 10.066406-19.882813 31.230469-10.152344 37.117188 5.378906 6.058594 15.957031-13.824219 43.859375-31.65625 68.949218-5.761719 8.003907-10.574219 16.652344-14.335938 25.769532-2.175781 5.363281-1.464844 11.46875 1.886719 16.1875 3.355469 4.71875 8.886719 7.398437 14.667969 7.109375 5.585937-.285157 11.128906-1.113281 16.554687-2.476563 5.242188-1.300781 10.402344-2.921875 15.445313-4.863281l133.289062-51.03125h.085938l18.089844-6.910156c10.117187-3.921875 21.609374-.972657 28.585937 7.339843 1.933594 2.171876 3.4375 4.691407 4.4375 7.421876 4.105469 10.757812.546875 22.929687-8.703125 29.78125-1.851562 1.390624-3.890625 2.511718-6.058594 3.328124l13.738282-5.289062h.085937l18.089844-6.914062c10.117187-3.921876 21.609375-.96875 28.585937 7.339843 1.949219 2.160157 3.457032 4.683594 4.4375 7.425781 2.429688 6.335938 2.238282 13.378907-.53125 19.574219-2.769531 6.195313-7.886718 11.03125-14.230468 13.449219zm0 0" fill="#66993e"/><path d="m427.863281 169.8125-31.914062 12.203125c6.351562-2.445313 13.414062-2.261719 19.628906.511719 3.480469 1.539062 6.550781 3.878906 8.957031 6.828125 1.929688 2.191406 3.460938 4.703125 4.523438 7.421875 2.4375 6.347656 2.238281 13.402344-.550782 19.605468-2.785156 6.199219-7.933593 11.027344-14.296874 13.417969l-62.378907 23.894531c6.355469-2.460937 13.433594-2.246093 19.628907.597657 3.492187 1.476562 6.570312 3.792969 8.957031 6.742187 2.316406 2.675782 4.035156 5.820313 5.035156 9.214844 3.523437 13.316406-3.695313 27.121094-16.640625 31.828125l-178.089844 68.097656h-.085937l-13.140625 5.035157s-43.007813 16.382812-78.25-1.28125c-2.367188-1.117188-4.980469-1.613282-7.59375-1.449219-1.902344.03125-3.78125.40625-5.546875 1.109375l-6.058594 2.304687c-19.199219 3.414063-68.609375 7.167969-71.511719-.429687v-132.265625c-2.816406-7.335938 4.949219-19.710938 12.714844-25.597657 1.382812-1.082031 2.902344-1.972656 4.523438-2.648437l2.902343-1.109375c12.796875-4.835938 23.082031-14.660156 28.5-27.21875 9.132813-21.164062 25.941407-54.785156 47.789063-75.007812 33.789062-31.234376 77.652344-68.269532 87.464844-90.285157.234374-.566406.519531-1.109375.855468-1.621093 5.542969 3.074218 9.832032 7.996093 12.117188 13.910156 6.058594 15.957031-13.824219 43.863281-31.660156 68.949218-5.792969 7.984376-10.605469 16.636719-14.335938 25.769532-2.195312 5.367187-1.492188 11.480468 1.867188 16.207031 3.355468 4.722656 8.898437 7.398437 14.6875 7.089844 10.992187-.710938 21.796874-3.1875 32-7.339844l9.558593-3.667969 141.90625-54.273437c2.203125-.820313 4.496094-1.363281 6.828125-1.621094h.085938c8.226562-.703125 16.277344 2.640625 21.589844 8.960937 1.957031 2.171876 3.488281 4.691407 4.523437 7.425782 5.042969 13.21875-1.558594 28.027344-14.765625 33.109375l31.0625-11.863281.851562-.339844c2.203126-.820313 4.496094-1.367188 6.828126-1.621094h.085937c8.226563-.703125 16.277344 2.636719 21.589844 8.960938 1.972656 2.15625 3.511719 4.675781 4.523437 7.421874 2.429688 6.335938 2.238282 13.378907-.53125 19.574219-2.769531 6.195313-7.890625 11.035157-14.234375 13.449219zm0 0" fill="#9aca5c"/><path d="m469.335938 375.464844c0 14.140625-11.460938 25.601562-25.597657 25.601562h-34.136719c6.789063 0 13.300782 2.703125 18.09375 7.507813 2.714844 2.671875 4.761719 5.949219 5.972657 9.558593 1.03125 2.726563 1.554687 5.617188 1.535156 8.535157 0 14.136719-11.460937 25.597656-25.601563 25.597656h-66.8125c6.785157 0 13.296876 2.703125 18.089844 7.511719 2.714844 2.671875 4.761719 5.945312 5.972656 9.554687 1.222657 3.328125 1.71875 6.878907 1.449219 10.410157-1.460937 13.710937-13.179687 24.019531-26.964843 23.722656h-204.800782s-45.992187 0-72.617187-29.097656c-3.160157-3.292969-7.550781-5.121094-12.117188-5.035157h-26.199219c-9.414062-.027343-17.035156-7.652343-17.066406-17.066406v-136.53125c.003906-7.484375 4.882813-14.09375 12.035156-16.300781 1.625-.523438 3.324219-.78125 5.03125-.765625h3.160157c13.679687.015625 26.789062-5.492188 36.351562-15.277344 16.042969-16.46875 43.777344-41.898437 71.421875-52.992187 42.667969-17.066407 102.402344-44.117188 119.46875-61.183594.425782-.425782.9375-.851563 1.363282-1.277344 16.640624-14.847656 32.769531 1.707031 32.769531 18.34375 0 17.066406-34.132813 44.117188-59.734375 61.183594-8.234375 5.429687-15.824219 11.789062-22.613282 18.945312-3.949218 4.246094-5.460937 10.214844-4.007812 15.828125 1.449219 5.617188 5.664062 10.105469 11.175781 11.90625 10.523438 3.25 21.503907 4.777344 32.511719 4.523438h162.132812c10.851563-.054688 20.527344 6.808593 24.066407 17.066406 1.03125 2.722656 1.554687 5.617187 1.535156 8.53125 0 14.140625-11.460937 25.601563-25.601563 25.601563h34.136719c10.847657-.050782 20.523438 6.808593 24.0625 17.066406 1.035157 2.726562 1.554688 5.617187 1.535157 8.53125zm0 0" fill="#66993e"/><path d="m443.738281 375.464844c0 14.140625-11.464843 25.601562-25.601562 25.601562h-34.132813c6.789063 0 13.296875 2.703125 18.089844 7.507813 2.714844 2.671875 4.761719 5.949219 5.972656 9.558593 1.035156 2.726563 1.554688 5.617188 1.535156 8.535157 0 14.136719-11.460937 25.597656-25.597656 25.597656h-66.816406c6.789062 0 13.296875 2.703125 18.089844 7.511719 2.714844 2.671875 4.761718 5.945312 5.972656 9.554687 1.226562 3.328125 1.71875 6.878907 1.453125 10.410157-1.464844 13.710937-13.179687 24.019531-26.964844 23.722656h-179.203125s-45.992187 0-72.617187-29.097656c-3.160157-3.292969-7.550781-5.121094-12.117188-5.035157h-26.199219c-9.414062-.027343-17.035156-7.652343-17.066406-17.066406v-136.53125c.003906-7.484375 4.882813-14.09375 12.035156-16.300781 1.625-.523438 3.324219-.78125 5.03125-.765625h3.160157c13.679687.015625 26.789062-5.492188 36.351562-15.277344 16.042969-16.46875 43.777344-41.898437 71.421875-52.992187 42.667969-17.066407 102.402344-44.117188 119.46875-61.183594.425782-.425782.9375-.851563 1.363282-1.277344 4.609374 5 7.167968 11.546875 7.167968 18.34375 0 17.066406-34.132812 44.117188-59.730468 61.183594-8.238282 5.429687-15.824219 11.789062-22.613282 18.945312-3.949218 4.246094-5.460937 10.214844-4.011718 15.828125 1.453124 5.617188 5.664062 10.105469 11.179687 11.90625 10.519531 3.25 21.5 4.777344 32.511719 4.523438h162.132812c10.847656-.054688 20.523438 6.808593 24.0625 17.066406 1.035156 2.722656 1.554688 5.617187 1.535156 8.53125 0 14.140625-11.460937 25.601563-25.597656 25.601563h34.132813c10.847656-.050782 20.527343 6.808593 24.0625 17.066406 1.035156 2.726562 1.554687 5.617187 1.539062 8.53125zm0 0" fill="#9aca5c"/><path d="m511.601562 79.1875c-1.425781-4.480469-6.207031-6.964844-10.691406-5.554688l-11.238281 3.558594c-3.027344.816406-5.363281 3.222656-6.089844 6.273438-.722656 3.050781.285157 6.25 2.625 8.339844 2.339844 2.085937 5.636719 2.71875 8.585938 1.652343l11.238281-3.558593c2.160156-.679688 3.957031-2.191407 5.003906-4.199219 1.046875-2.007813 1.25-4.351563.566406-6.511719zm0 0"/><path d="m489.355469 36.777344c-1.6875-1.507813-3.90625-2.28125-6.164063-2.152344-2.261718.128906-4.378906 1.148438-5.882812 2.835938l-7.683594 8.609374c-2.027344 2.277344-2.691406 5.460938-1.738281 8.355469.957031 2.894531 3.382812 5.0625 6.367187 5.683594s6.074219-.398437 8.105469-2.671875l7.679687-8.609375c1.507813-1.6875 2.28125-3.90625 2.152344-6.167969-.125-2.257812-1.148437-4.375-2.835937-5.882812zm0 0"/><path d="m433.027344 28.476562-2.089844 11.347657c-.847656 4.625 2.207031 9.0625 6.824219 9.925781.511719.097656 1.027343.148438 1.546875.144531 4.121094-.003906 7.648437-2.953125 8.386718-7.007812l2.074219-11.347657c.847657-4.636718-2.226562-9.082031-6.863281-9.929687-4.640625-.84375-9.085938 2.230469-9.929688 6.867187zm0 0"/><path d="m503.46875 460.246094c4.214844 0 7.796875-3.074219 8.4375-7.238282.640625-4.164062-1.855469-8.171874-5.875-9.4375l-11.238281-3.558593c-4.445313-1.257813-9.082031 1.246093-10.464844 5.652343-1.386719 4.402344.980469 9.109376 5.34375 10.621094l11.238281 3.558594c.828125.265625 1.691406.398438 2.558594.402344zm0 0"/><path d="m470.300781 475.347656c-1.6875 1.507813-2.707031 3.625-2.835937 5.886719-.128906 2.257813.644531 4.476563 2.152344 6.164063l7.679687 8.609374c2.03125 2.273438 5.121094 3.292969 8.105469 2.671876 2.984375-.621094 5.414062-2.789063 6.367187-5.683594.953125-2.894532.289063-6.078125-1.738281-8.355469l-7.679688-8.609375c-1.507812-1.6875-3.625-2.707031-5.882812-2.835938-2.261719-.128906-4.480469.648438-6.167969 2.152344zm0 0"/><path d="m437.816406 483.71875c-4.621094.863281-7.675781 5.300781-6.828125 9.925781l2.074219 11.359375c.742188 4.050782 4.269531 6.992188 8.386719 6.996094.519531.003906 1.035156-.046875 1.546875-.144531 4.617187-.863281 7.671875-5.300781 6.824218-9.925781l-2.074218-11.355469c-.851563-4.636719-5.296875-7.703125-9.929688-6.855469zm0 0"/><path d="m25.601562 477.867188h26.199219c2.167969-.078126 4.273438.738281 5.820313 2.261718 28.832031 31.511719 76.882812 31.871094 78.914062 31.871094h204.800782c18.25.339844 33.695312-13.40625 35.472656-31.574219.535156-6.84375-1.023438-13.6875-4.46875-19.625h37.261718c12.199219.003907 23.46875-6.503906 29.566407-17.0625 6.101562-10.5625 6.101562-23.578125.003906-34.136719h4.566406c18.851563 0 34.132813-15.285156 34.132813-34.136718 0-18.847656-15.28125-34.132813-34.132813-34.132813h-4.582031c5.914062-10.207031 6.113281-22.75.519531-33.140625-5.589843-10.390625-16.167969-17.132812-27.949219-17.820312 6.171876-6.863282 9.242188-15.96875 8.496094-25.167969-.742187-9.199219-5.242187-17.6875-12.4375-23.472656l34.78125-13.386719c13.929688-5.367188 22.757813-19.160156 21.796875-34.058594-.203125-3.433594-.953125-6.8125-2.230469-10.007812-2.136718-5.621094-5.734374-10.566406-10.425781-14.328125l4.265625-1.644531c7.507813-2.835938 13.730469-8.292969 17.527344-15.363282 7.027344-12.535156 5.425781-28.132812-4-38.980468-9.425781-10.851563-24.648438-14.613282-38.042969-9.410157l-4.207031 1.613281c1.898438-12.066406-2.792969-24.222656-12.304688-31.886718-9.511718-7.660156-22.390624-9.65625-33.773437-5.234375l-151.253906 58.316406c-9.316407 3.804687-19.175781 6.105469-29.210938 6.828125-3.015625.222656-5.917969-1.1875-7.601562-3.695312-1.617188-2.289063-1.941407-5.25-.855469-7.835938 3.585938-8.476562 8.082031-16.542969 13.40625-24.054688l.5625-.792968c19.363281-27.453125 39.382812-55.832032 31.660156-75.894532-4.472656-12.324218-15.738281-20.894531-28.808594-21.914062-11.273437.0546875-21.273437 7.25-24.910156 17.921875-7.304687 16.375-38.398437 44.738281-65.824218 69.75-6.539063 5.972656-13.015626 11.871094-19.132813 17.578125-22.398437 20.710938-39.382813 53.855469-49.707031 78.003906-4.488282 10.410156-12.972656 18.578125-23.542969 22.671875l-9.703125 3.722657c-9.832031 3.808593-16.2929688 13.289062-16.24609375 23.832031v218.785156c0 14.140625 11.46093775 25.601563 25.59765575 25.601563zm401.070313-153.53125c0 9.425781-7.644531 17.066406-17.070313 17.066406h-145.066406c-4.710937 0-8.53125 3.820312-8.53125 8.53125 0 4.714844 3.820313 8.535156 8.53125 8.535156h179.203125c9.425781 0 17.066407 7.640625 17.066407 17.066406-.058594 9.402344-7.664063 17.011719-17.066407 17.066406h-179.203125c-4.710937 0-8.53125 3.820313-8.53125 8.535157 0 4.710937 3.820313 8.53125 8.53125 8.53125h145.066406c9.425782 0 17.070313 7.640625 17.070313 17.066406s-7.644531 17.066406-17.070313 17.066406h-153.597656c-4.714844 0-8.535156 3.820313-8.535156 8.535157 0 4.710937 3.820312 8.53125 8.535156 8.53125h86.785156c4.746094.003906 9.277344 1.984374 12.503907 5.464843 3.226562 3.480469 4.855469 8.148438 4.5 12.882813-1.222657 9.191406-9.1875 15.972656-18.457031 15.71875h-204.800782c-.417968 0-42.511718-.300782-66.34375-26.335938-4.777344-5.046875-11.441406-7.871094-18.390625-7.796875h-26.199219c-4.710937 0-8.53125-3.820312-8.53125-8.535156v-136.457031c0-4.710938 3.820313-8.53125 8.53125-8.53125h3.160157c15.972656-.015625 31.273437-6.449219 42.460937-17.851563 14.0625-14.429687 41.660156-40.242187 68.480469-51.003906 16.453125-6.570313 99.644531-40.523437 122.332031-63.207031 4.070313-4.054688 7.816406-5.402344 11.171875-4.027344 5.359375 3.089844 8.582031 8.878906 8.394531 15.0625 0 8.421875-19.207031 29.746094-55.933593 54.21875-8.773438 5.769531-16.863281 12.523438-24.105469 20.121094-5.9375 6.292968-8.253906 15.179687-6.144531 23.570312 2.132812 8.527344 8.46875 15.375 16.800781 18.167969 11.410156 3.527344 23.3125 5.203125 35.25 4.957031h162.132812c9.421876 0 17.058594 7.628906 17.070313 17.050782zm-404.199219-98.78125 9.511719-3.6875c14.90625-5.742188 26.875-17.238282 33.214844-31.898438 7.910156-18.527344 24.402343-52.582031 45.574219-72.207031 6.101562-5.683594 12.535156-11.546875 19.023437-17.46875 30.070313-27.425781 61.15625-55.78125 69.972656-75.460938 2.269531-5.207031 5.332031-7.765625 8.875-7.765625 6.117188.933594 11.222657 5.15625 13.285157 10.992188 4.4375 11.535156-15.28125 39.5-29.6875 59.921875l-.5625.792969c-5.972657 8.410156-11.007813 17.445312-15.019532 26.945312l-.222656.496094c-6.457031 17.34375-7.933594 36.144531-4.265625 54.28125.722656 4.660156 5.082031 7.851562 9.742187 7.128906 4.65625-.71875 7.847657-5.082031 7.128907-9.738281-1.03125-6.617188-1.46875-13.3125-1.304688-20.003907 4.171875 2.378907 8.917969 3.558594 13.71875 3.414063 11.890625-.808594 23.574219-3.503906 34.613281-7.988281l151.269532-58.300782c5.699218-2.195312 12.136718-1.183593 16.886718 2.652344 4.75 3.835938 7.09375 9.914063 6.148438 15.949219-.949219 6.03125-5.039062 11.101563-10.738281 13.296875l-.078125.050781h-.085938l-69.886718 28.757813c-4.359376 1.792968-6.441407 6.777344-4.648438 11.136718 1.789062 4.359376 6.773438 6.441407 11.132812 4.648438l69.804688-28.722656 31.710938-12.234375c8.796874-3.363281 18.660156.992187 22.097656 9.761719 1.828125 4.726562 1.429687 10.023437-1.089844 14.421874-1.863281 3.53125-4.953125 6.261719-8.6875 7.679688l-31.632812 12.21875h-.070313c-.050781 0-.101563 0-.160156 0l-105.386719 40.738281c-3.847656 1.472657-6.097656 5.484375-5.339844 9.535157.757813 4.050781 4.300782 6.984374 8.421875 6.96875 1.050781.003906 2.097657-.191407 3.078125-.570313l105.292969-40.699219h.121094l.117187-.050781c4.167969-1.574219 8.792969-1.425781 12.851563.410156 4.199219 1.847657 7.476562 5.304688 9.097656 9.59375.613281 1.554688.976563 3.199219 1.074219 4.871094.496094 7.472656-3.9375 14.390625-10.929688 17.066406l-62.082031 23.886719-.28125.109375-51.683594 19.855469c-3.847656 1.472656-6.09375 5.480468-5.34375 9.527344.753907 4.050781 4.289063 6.984374 8.40625 6.976562 1.050781 0 2.089844-.195312 3.070313-.570312l51.679687-19.898438h.042969l.203125-.085938c4.152344-1.566406 8.757813-1.417968 12.800781.417969 4.546875 2.027344 7.976563 5.941407 9.386719 10.71875 2.28125 9.03125-2.742187 18.304688-11.554687 21.332031l-11.777344 4.523438c-.546875.261719-1.0625.589844-1.535156.972656h-130.304688c-10.074219.234375-20.121094-1.140625-29.761719-4.070312-2.839843-.925782-5-3.253906-5.710937-6.152344-.71875-2.753906.046875-5.679688 2.015625-7.734375 6.351562-6.644531 13.441406-12.546875 21.128906-17.59375 23.722656-15.847656 63.53125-45.765625 63.53125-68.453125.269531-13.097656-7.132813-25.140625-18.9375-30.816406-10.558594-3.960938-22.464844-.871094-29.765625 7.722656-14.753906 14.753906-69.195312 40.476562-116.605469 59.4375-28.261719 11.332031-56.03125 36.121094-74.359375 54.925781-7.972656 8.117188-18.867187 12.695313-30.242187 12.699219h-3.160157c-2.910156.027344-5.796874.558594-8.53125 1.570312v-58.308593c-.019531-3.507813 2.132813-6.660157 5.402344-7.925781zm0 0"/><path d="m204.804688 460.671875h-51.203126c-4.710937 0-8.53125 3.820313-8.53125 8.535156 0 4.710938 3.820313 8.53125 8.53125 8.53125h51.203126c4.710937 0 8.53125-3.820312 8.53125-8.53125 0-4.714843-3.820313-8.535156-8.53125-8.535156zm0 0"/><path d="m119.667969 460.671875c-4.335938-.640625-8.304688-2.773437-11.230469-6.03125-3.347656-3.234375-8.671875-3.1875-11.964844.101563-3.289062 3.292968-3.335937 8.613281-.101562 11.960937 6.007812 6.496094 14.273437 10.441406 23.097656 11.035156 4.609375-.007812 8.355469-3.714843 8.414062-8.320312.0625-4.652344-3.570312-8.515625-8.214843-8.746094zm0 0"/><path d="m42.671875 324.191406c-4.714844 0-8.535156 3.820313-8.535156 8.53125v8.535156c0 4.710938 3.820312 8.53125 8.535156 8.53125 4.710937 0 8.53125-3.820312 8.53125-8.53125v-8.535156c0-4.710937-3.820313-8.53125-8.53125-8.53125zm0 0"/><path d="m42.671875 366.839844c-4.714844 0-8.535156 3.820312-8.535156 8.53125v59.734375c0 4.714843 3.820312 8.535156 8.535156 8.535156 4.710937 0 8.53125-3.820313 8.53125-8.535156v-59.734375c0-4.710938-3.820313-8.53125-8.53125-8.53125zm0 0"/></svg>